<?xml version="1.0" standalone="no"?>
<!DOCTYPE svg PUBLIC "-//W3C//DTD SVG 20010904//EN"
 "http://www.w3.org/TR/2001/REC-SVG-20010904/DTD/svg10.dtd">
<svg version="1.0" xmlns="http://www.w3.org/2000/svg"
 width="750.000000pt" height="475.000000pt" viewBox="0 0 750.000000 475.000000"
 preserveAspectRatio="xMidYMid meet">
<metadata>
Created by potrace 1.15, written by Peter Selinger 2001-2017
</metadata>
<g transform="translate(0.000000,475.000000) scale(0.100000,-0.100000)"
fill="#000000" stroke="none">
<path d="M2771 4678 c-45 -8 -79 -25 -121 -63 -14 -13 -44 -25 -69 -28 -91
-11 -171 -102 -171 -193 0 -29 -18 -89 -51 -174 -28 -71 -52 -130 -55 -130 -3
0 -21 7 -41 15 -61 26 -67 22 -102 -66 -33 -86 -32 -101 11 -115 13 -4 17 -11
13 -22 -4 -10 -9 -26 -10 -37 -4 -31 -253 -647 -263 -654 -14 -9 -42 -79 -42
-105 0 -12 -37 -116 -83 -231 -46 -116 -99 -250 -117 -298 -26 -69 -37 -87
-49 -82 -91 36 -381 50 -521 26 -41 -7 -121 -28 -178 -47 -656 -214 -1010
-932 -780 -1582 142 -404 455 -689 877 -799 134 -35 358 -43 498 -18 254 45
465 151 646 324 179 171 297 378 354 623 34 145 39 373 10 508 -36 166 -101
323 -195 465 -81 123 -253 283 -409 380 -6 4 240 591 251 600 18 15 46 92 40
109 -18 47 32 6 176 -142 89 -92 506 -511 925 -932 l764 -765 -30 -69 c-16
-38 -28 -70 -27 -71 2 -1 56 -23 121 -49 88 -36 122 -45 130 -37 8 8 31 -8 87
-64 l76 -75 109 -6 c133 -8 280 8 315 34 41 30 62 80 56 137 -2 28 -7 58 -11
68 -6 14 -1 17 32 17 l40 0 12 -66 c80 -438 412 -813 837 -947 152 -48 243
-60 419 -54 175 5 280 26 429 86 379 152 682 526 746 921 6 41 16 97 21 123
14 73 11 138 -12 276 -26 154 -58 259 -114 373 -88 177 -213 330 -364 443
-484 365 -1150 329 -1594 -85 -184 -172 -326 -431 -367 -670 -22 -124 -4 -110
-143 -110 l-122 0 -103 103 -103 103 47 125 c26 68 50 127 54 131 3 5 37 -5
75 -21 48 -20 73 -27 81 -20 17 14 68 155 61 171 -2 7 -35 24 -72 38 -37 14
-69 28 -72 33 -2 4 26 84 63 179 l67 171 66 -6 c153 -14 356 29 486 105 108
63 219 147 227 171 3 12 6 55 7 96 1 71 0 74 -34 108 -34 34 -38 35 -88 30
-28 -3 -104 -15 -167 -28 -96 -19 -149 -22 -325 -23 -203 0 -220 2 -503 47
-323 52 -344 52 -395 -1 -24 -25 -49 -78 -71 -149 -8 -26 -10 -26 292 -148
114 -46 224 -91 244 -99 l36 -16 -70 -174 -70 -174 -35 15 c-30 12 -38 12 -48
1 -13 -14 -65 -141 -65 -159 0 -5 15 -16 34 -24 l35 -15 -31 -75 c-17 -41 -34
-75 -37 -75 -4 0 -166 161 -361 357 -195 197 -610 615 -923 929 l-569 572 27
46 27 46 30 -16 c16 -8 37 -14 45 -12 19 3 84 160 74 176 -3 6 -36 22 -72 36
l-66 27 35 89 c35 89 35 89 76 95 23 4 55 15 73 25 26 15 39 17 65 9 69 -20
160 13 221 80 76 85 77 211 1 299 -58 68 -135 96 -223 80z m134 -71 c162 -92
98 -336 -88 -337 -191 0 -255 255 -85 339 57 28 122 27 173 -2z m-417 -376
c23 -21 42 -48 42 -59 0 -20 -38 -120 -51 -136 -8 -9 -94 18 -113 35 -8 7 62
199 73 199 3 -1 25 -18 49 -39z m-71 -243 c106 -42 183 -78 183 -86 0 -7 -7
-28 -15 -48 -14 -34 -15 -34 -47 -21 -18 7 -103 42 -189 77 l-157 63 16 44 c9
23 18 43 21 43 3 0 87 -33 188 -72z m-107 -184 c93 -39 110 -50 110 -70 0 -8
-34 -47 -75 -88 -120 -121 -167 -236 -164 -407 1 -54 -4 -105 -10 -117 -11
-20 -12 -20 -103 20 -51 23 -95 42 -97 44 -3 3 250 653 254 654 0 0 39 -16 85
-36z m1051 -1090 c914 -915 934 -936 944 -984 12 -60 25 -75 25 -30 0 32 88
270 99 270 25 -2 99 -50 111 -72 13 -25 13 -33 -4 -80 -46 -132 -79 -199 -105
-214 l-26 -15 35 6 c32 5 39 1 117 -77 46 -45 83 -86 83 -90 0 -3 -63 -8 -140
-10 l-140 -3 -37 -38 c-36 -35 -38 -41 -38 -101 0 -55 4 -68 25 -91 49 -52 63
-55 284 -55 l204 0 31 -26 c37 -30 49 -80 29 -121 -20 -43 -69 -54 -242 -54
l-150 0 -82 82 c-69 69 -84 89 -90 123 -9 57 -23 80 -24 40 0 -17 -7 -47 -15
-67 l-15 -35 -72 30 c-40 17 -74 31 -76 33 -6 5 43 112 59 127 26 22 24 29 -5
18 -23 -8 -86 53 -963 936 -543 547 -944 959 -952 977 -20 49 -10 209 18 271
29 67 76 124 130 158 25 15 46 28 47 28 1 0 422 -421 935 -936z m-1346 330
c46 -20 86 -43 90 -52 4 -12 -50 -168 -70 -200 -1 -1 -18 13 -39 32 -38 36
-87 52 -132 43 -20 -3 -24 -1 -19 12 27 73 79 201 82 201 3 0 42 -16 88 -36z
m2466 -161 c279 -47 288 -47 509 -47 176 0 245 4 315 17 214 43 212 43 235 22
16 -14 20 -30 20 -80 0 -34 -6 -68 -12 -77 -20 -24 -146 -112 -219 -152 -99
-54 -239 -87 -372 -87 l-108 0 -382 153 c-420 169 -395 153 -359 228 10 21 31
42 52 52 19 10 36 18 36 18 1 0 129 -21 285 -47z m-2541 -68 c16 -8 34 -24 40
-34 25 -48 11 -94 -207 -636 -211 -525 -217 -542 -219 -615 -1 -67 -8 -92 -65
-234 -67 -165 -85 -191 -126 -176 -21 9 -21 10 -6 49 10 26 25 43 42 49 19 7
32 25 49 67 l22 57 -41 49 -42 50 -56 -7 c-66 -7 -74 -13 -99 -79 -15 -38 -17
-56 -10 -69 13 -23 -9 -96 -28 -96 -15 0 -44 27 -44 41 0 5 30 84 67 176 53
133 76 177 109 213 22 25 46 54 52 65 6 12 85 214 177 450 92 237 184 476 206
532 57 144 106 186 179 148z m2770 -344 c50 -35 48 -57 -11 -212 -30 -78 -59
-143 -65 -146 -6 -2 -37 7 -68 21 l-57 25 14 33 c7 18 38 95 68 170 58 150 59
151 119 109z m-3450 -31 c0 -31 5 -43 25 -56 25 -16 27 -16 50 6 17 16 25 34
25 57 0 18 5 33 11 33 6 0 8 -8 5 -17 -15 -48 -10 -104 11 -124 21 -21 21 -21
46 -3 25 19 37 52 37 105 0 20 5 29 16 29 13 0 15 -7 10 -36 -8 -38 13 -84 37
-84 20 0 55 42 59 70 1 14 8 23 13 20 6 -3 9 -7 8 -10 -1 -3 -20 -53 -43 -113
l-42 -107 -51 7 c-29 5 -115 8 -192 7 -166 0 -249 -19 -390 -89 -268 -133
-459 -389 -505 -679 -20 -122 -8 -322 25 -426 112 -351 389 -593 749 -656 348
-61 724 102 920 400 211 320 214 711 8 1031 -66 103 -156 193 -281 281 -4 4
49 146 59 157 5 5 11 -5 15 -22 4 -17 13 -31 20 -31 29 0 61 19 74 44 8 14 18
26 23 26 16 0 8 -17 -28 -58 -28 -33 -35 -49 -32 -74 2 -28 8 -34 31 -36 28
-3 62 23 99 77 10 13 21 20 28 16 8 -5 2 -18 -20 -40 -23 -24 -31 -40 -28 -61
3 -25 8 -29 37 -32 26 -3 40 3 63 25 l29 28 39 -45 c22 -25 40 -50 40 -57 0
-6 -13 -20 -29 -29 -28 -17 -48 -65 -35 -85 9 -15 68 -10 92 7 12 8 28 14 35
11 6 -2 -14 -17 -45 -32 -44 -22 -59 -35 -63 -57 -8 -34 -2 -44 31 -52 18 -5
41 2 80 23 32 17 54 24 54 17 0 -7 -15 -18 -34 -24 -23 -9 -38 -22 -45 -42 -9
-28 -8 -31 19 -45 26 -14 34 -14 65 -1 19 8 37 11 40 6 3 -4 -19 -16 -47 -25
-83 -27 -112 -72 -61 -98 23 -12 34 -12 85 3 45 14 58 15 58 5 0 -7 -17 -15
-39 -19 -27 -4 -44 -14 -56 -32 -17 -26 -17 -28 6 -46 17 -13 37 -17 69 -16
l45 3 5 -47 c6 -50 1 -58 -19 -34 -9 11 -9 20 -2 35 18 32 14 34 -50 28 -46
-5 -65 -12 -79 -29 -25 -30 -25 -34 6 -55 26 -17 65 -19 127 -7 16 3 27 1 27
-5 0 -6 -18 -11 -40 -11 -31 0 -47 -7 -67 -26 l-25 -25 22 -24 c15 -16 36 -25
63 -27 22 -2 42 -8 44 -15 3 -9 -12 -11 -62 -6 -59 5 -68 4 -90 -17 l-25 -24
27 -28 c15 -15 34 -28 42 -28 11 0 6 -8 -13 -23 l-29 -24 19 -26 c10 -14 34
-30 53 -34 19 -5 36 -14 38 -20 3 -8 -14 -6 -52 7 -52 18 -59 18 -86 5 -16 -9
-29 -21 -29 -28 1 -25 37 -55 88 -72 28 -9 50 -21 47 -25 -3 -5 -21 -2 -40 6
-35 14 -80 11 -91 -8 -13 -20 18 -68 52 -80 19 -7 34 -17 34 -24 0 -7 -22 0
-55 18 -39 21 -63 28 -81 24 -56 -14 -37 -76 33 -108 27 -13 50 -24 52 -25 1
-1 0 -7 -4 -13 -4 -7 -16 -4 -35 10 -29 21 -66 26 -88 12 -21 -14 -3 -70 29
-89 16 -10 29 -22 29 -28 -1 -13 -76 -95 -87 -95 -5 0 -20 11 -33 25 -18 19
-33 25 -55 23 -25 -3 -30 -8 -33 -33 -2 -21 5 -38 23 -57 24 -26 33 -48 18
-48 -5 1 -25 23 -47 51 -33 44 -42 50 -70 47 -27 -3 -31 -7 -34 -36 -3 -25 5
-42 34 -77 25 -32 34 -49 27 -56 -7 -7 -17 1 -32 25 -21 34 -68 55 -91 41 -15
-9 -12 -68 5 -91 16 -21 20 -44 7 -44 -5 0 -19 23 -32 51 -13 28 -32 55 -41
60 -62 33 -88 -26 -45 -101 28 -48 31 -60 17 -60 -5 0 -12 11 -15 25 -8 33
-41 65 -65 65 -30 0 -44 -52 -25 -95 8 -19 10 -35 5 -35 -4 0 -15 24 -23 52
-11 41 -22 57 -46 71 l-31 18 -16 -31 c-14 -27 -14 -35 0 -82 18 -60 17 -58 7
-58 -5 0 -13 17 -18 37 -6 24 -18 43 -36 53 -25 14 -28 13 -43 -5 -10 -13 -14
-34 -12 -62 3 -24 1 -43 -3 -43 -4 0 -10 27 -14 60 -6 50 -12 63 -33 77 -25
16 -26 16 -47 -8 -19 -23 -22 -33 -16 -82 3 -32 2 -57 -2 -57 -4 0 -8 15 -8
34 0 22 -9 45 -24 63 l-24 28 -26 -24 c-19 -18 -26 -35 -26 -63 0 -22 -5 -38
-11 -38 -8 0 -10 18 -6 59 6 53 4 60 -18 81 l-25 23 -24 -22 c-18 -17 -27 -39
-32 -77 -3 -30 -10 -51 -16 -48 -5 3 -7 22 -4 43 5 27 1 42 -13 61 l-20 25
-27 -21 c-16 -11 -32 -35 -36 -52 -5 -18 -13 -32 -18 -32 -13 0 -13 -3 5 58
14 47 14 55 0 82 l-16 31 -31 -18 c-23 -13 -35 -31 -45 -66 -7 -26 -18 -47
-23 -47 -12 0 -12 0 1 39 8 24 8 39 -1 61 -7 17 -15 30 -19 30 -20 -2 -57 -32
-72 -61 -10 -19 -18 -28 -19 -21 0 7 12 33 26 57 24 41 24 45 10 74 -15 28
-18 29 -47 19 -21 -7 -37 -24 -52 -54 -11 -24 -25 -44 -29 -44 -12 0 -10 10
12 39 14 21 17 35 11 57 -7 24 -13 29 -37 27 -19 -2 -39 -14 -56 -35 -15 -18
-28 -28 -28 -21 0 7 14 28 31 48 27 30 30 40 25 71 -7 34 -9 35 -39 29 -18 -4
-45 -21 -62 -41 -34 -39 -39 -40 -63 -16 -43 42 -46 51 -27 72 23 25 62 26 68
3 2 -10 -5 -28 -16 -40 -26 -29 -14 -43 13 -18 15 14 20 29 18 54 -3 31 -7 36
-32 39 -20 3 -36 -4 -56 -23 -15 -15 -30 -22 -33 -17 -4 5 12 22 33 38 34 25
40 35 40 67 0 36 -1 37 -35 37 -24 0 -45 -9 -69 -30 -25 -22 -37 -27 -42 -18
-4 6 -2 14 4 16 24 8 51 38 58 64 5 24 2 29 -22 39 -24 9 -35 8 -66 -9 -27
-14 -38 -17 -38 -8 0 7 18 21 41 31 64 29 82 86 32 103 -22 7 -38 4 -75 -15
-27 -13 -48 -19 -48 -13 0 5 11 12 25 16 21 5 55 47 55 68 0 3 -12 12 -28 20
-23 12 -32 12 -59 1 -18 -8 -35 -10 -38 -5 -5 8 54 30 82 30 15 0 43 39 43 61
0 9 -13 22 -29 29 -23 9 -38 9 -76 -5 -26 -8 -50 -13 -53 -11 -3 3 4 8 14 11
37 11 67 30 78 48 18 29 -27 61 -76 53 -21 -4 -38 -2 -38 3 0 5 26 12 58 16
45 5 61 12 76 32 l19 26 -27 22 c-22 17 -38 21 -84 19 -53 -3 -54 -2 -14 5 38
7 71 32 72 55 0 23 -35 46 -72 46 -21 0 -38 5 -38 11 0 8 17 9 55 4 44 -5 59
-3 79 12 31 22 32 31 4 60 -14 15 -33 23 -54 23 -38 0 -64 9 -64 21 0 5 17 7
38 3 29 -4 43 -1 62 14 23 19 23 20 7 46 -10 14 -30 29 -45 32 -36 9 -43 14
-37 24 3 5 26 2 50 -7 44 -14 75 -13 103 6 12 7 11 14 -2 39 -12 22 -29 35
-66 47 -28 9 -49 19 -46 22 3 3 19 0 36 -7 57 -23 96 11 70 61 -10 17 -8 18
12 8 16 -7 32 -7 51 0 50 19 28 74 -42 106 -23 10 -41 22 -41 27 0 12 8 10 38
-12 20 -15 36 -19 60 -14 34 7 38 17 22 58 -11 29 1 34 20 10 8 -9 25 -14 44
-12 27 3 31 7 34 34 3 26 -4 38 -43 72 -29 25 -42 43 -35 47 7 4 24 -5 39 -19
65 -62 126 1 65 67 -14 16 -23 31 -19 35 4 4 23 -12 43 -34 34 -39 85 -64 95
-47 20 36 15 63 -18 104 -36 45 -42 59 -26 59 6 0 18 -13 27 -29 19 -33 72
-50 86 -29 12 21 9 63 -7 84 -17 22 -19 34 -5 34 5 0 21 -22 34 -49 19 -37 32
-50 53 -54 35 -7 40 -3 48 31 4 20 -1 41 -19 73 -28 47 -31 59 -18 59 5 0 16
-17 24 -39 11 -28 23 -40 44 -45 49 -13 62 23 39 104 -5 17 -4 22 2 15 6 -5
16 -32 23 -58 10 -36 20 -52 43 -63 25 -13 31 -14 38 -2 19 29 21 63 6 109 -8
27 -11 49 -7 49 5 0 12 -16 16 -35 4 -21 16 -40 32 -51 25 -16 26 -16 45 7 13
16 18 35 15 61 -6 59 9 45 16 -16 5 -39 14 -60 32 -77 l25 -24 20 25 c14 18
19 40 18 80 -1 71 -1 72 11 65 6 -3 10 -24 10 -45z m4991 -18 c-2 -49 1 -61
22 -80 l23 -22 23 24 c15 16 24 41 28 80 3 31 10 56 15 56 6 0 7 -16 3 -38 -5
-30 -2 -44 15 -65 20 -25 22 -26 46 -11 13 9 28 33 34 55 6 22 15 37 19 35 4
-3 1 -32 -8 -64 -14 -55 -14 -61 2 -86 17 -25 19 -26 47 -11 22 11 32 28 45
70 8 30 20 55 26 55 7 0 8 -7 4 -17 -16 -39 -17 -54 -5 -83 7 -17 14 -30 17
-30 20 0 63 35 71 60 6 16 16 30 21 30 16 0 13 -11 -14 -55 -27 -45 -31 -73
-12 -99 23 -31 64 -11 93 45 13 27 31 49 39 49 20 0 19 -5 -7 -40 -18 -24 -20
-35 -12 -62 8 -27 14 -32 34 -30 14 2 39 18 56 37 45 51 50 30 5 -26 -30 -38
-37 -54 -33 -78 4 -27 8 -31 36 -31 25 0 39 9 70 46 21 25 41 43 44 40 3 -4
-7 -19 -22 -35 -61 -63 -5 -123 62 -67 51 43 50 29 -1 -19 -39 -36 -48 -49
-45 -72 2 -23 8 -29 36 -31 25 -3 41 4 74 32 23 20 44 33 47 30 3 -3 -9 -18
-27 -32 -24 -20 -32 -35 -32 -59 0 -31 2 -33 33 -33 18 0 43 7 55 16 12 8 27
14 33 12 6 -2 -12 -16 -41 -32 -74 -40 -92 -98 -34 -109 20 -3 44 4 81 25 29
16 53 25 53 18 0 -6 -15 -17 -33 -25 -27 -11 -57 -48 -57 -70 0 -3 13 -11 29
-20 26 -13 33 -13 65 0 42 18 46 18 46 6 0 -6 -24 -18 -54 -27 -38 -12 -58
-24 -65 -41 -16 -35 -14 -41 16 -56 24 -13 33 -12 80 4 43 15 53 15 53 4 0 -8
-15 -17 -35 -21 -31 -5 -65 -38 -65 -61 0 -5 13 -16 29 -26 21 -12 36 -14 59
-8 17 5 33 7 36 3 15 -15 2 -22 -43 -22 -34 0 -56 -6 -75 -21 -31 -24 -33 -40
-6 -64 15 -14 32 -17 80 -13 35 2 59 0 57 -5 -1 -5 -20 -11 -41 -13 -39 -3
-76 -27 -76 -49 0 -20 47 -45 85 -45 19 0 35 -4 35 -9 0 -5 -27 -7 -60 -4 -49
5 -64 2 -80 -12 -41 -37 -9 -73 74 -82 31 -3 56 -10 56 -15 0 -4 -18 -5 -41
-2 -102 17 -122 -72 -21 -92 34 -7 54 -24 29 -24 -8 0 -33 7 -57 15 -37 13
-45 13 -71 0 -33 -18 -35 -26 -13 -60 10 -15 33 -28 65 -36 27 -7 49 -19 49
-26 0 -16 0 -16 -41 1 -29 12 -39 12 -67 0 -33 -13 -33 -13 -17 -44 9 -17 31
-38 50 -47 19 -9 35 -20 35 -25 0 -13 -12 -9 -59 18 -44 25 -92 26 -107 3 -13
-21 18 -66 61 -89 25 -14 45 -28 45 -32 0 -12 -10 -10 -44 12 -31 19 -85 17
-86 -2 -1 -39 3 -51 19 -67 10 -10 27 -23 36 -29 10 -5 15 -14 11 -21 -5 -8
-23 2 -56 29 -40 34 -52 39 -79 34 -26 -5 -31 -11 -31 -35 0 -29 6 -37 60 -83
18 -15 30 -30 26 -33 -3 -4 -19 6 -34 20 -19 18 -39 27 -60 27 -29 0 -32 -3
-32 -33 0 -21 9 -42 26 -60 14 -16 23 -31 19 -35 -4 -4 -12 0 -18 9 -50 67
-67 80 -99 77 -49 -5 -50 -44 -4 -102 46 -55 47 -72 2 -23 -44 48 -81 51 -91
7 -5 -22 -1 -40 15 -65 12 -19 17 -35 11 -35 -5 0 -22 22 -37 50 -15 27 -32
50 -38 50 -6 0 -21 3 -33 6 -19 5 -23 1 -28 -30 -6 -28 -2 -45 19 -80 28 -48
31 -56 18 -56 -5 0 -16 16 -25 35 -9 20 -29 41 -43 47 -23 11 -28 10 -41 -7
-14 -19 -13 -59 2 -98 4 -9 3 -17 -3 -17 -6 0 -18 24 -26 53 -11 40 -22 57
-41 65 -37 17 -41 16 -55 -17 -10 -25 -9 -39 5 -81 9 -28 14 -54 10 -58 -9 -9
-25 19 -25 45 0 13 -13 31 -31 44 l-32 22 -18 -24 c-15 -19 -18 -34 -14 -66 4
-26 2 -43 -4 -43 -10 0 -18 32 -23 93 -2 19 -13 34 -31 45 -27 17 -29 16 -47
-8 -11 -14 -20 -35 -20 -48 0 -23 0 -23 -24 5 l-25 28 -22 -22 -23 -23 -11 32
c-16 48 -39 57 -70 28 -14 -13 -25 -33 -25 -44 -1 -19 -2 -18 -18 6 -9 16 -24
28 -33 28 -23 0 -48 -31 -55 -68 -4 -18 -10 -32 -15 -32 -12 0 -12 0 6 50 19
55 19 73 -3 100 -18 22 -19 22 -45 6 -18 -12 -31 -35 -42 -72 -8 -30 -20 -54
-26 -54 -7 0 -9 9 -5 23 16 55 16 73 3 91 -21 29 -64 14 -84 -29 -9 -19 -20
-35 -25 -35 -13 0 -10 10 18 57 22 39 24 48 14 78 -6 19 -13 35 -14 35 -2 0
-17 -5 -33 -10 -22 -8 -36 -24 -53 -60 -13 -28 -26 -50 -30 -50 -18 0 -17 15
1 41 15 21 19 37 14 59 -9 43 -53 42 -90 -1 -37 -45 -43 -27 -6 19 22 28 31
51 31 76 0 33 -2 36 -30 36 -30 0 -47 -12 -88 -64 -12 -16 -25 -26 -29 -22 -4
3 6 19 20 34 18 19 27 39 27 60 0 29 -3 32 -32 32 -18 0 -45 -11 -65 -26 -18
-14 -33 -20 -33 -15 0 6 3 11 8 11 4 0 24 16 45 36 49 47 52 89 5 98 -27 5
-38 0 -80 -34 -26 -23 -48 -37 -48 -31 0 5 14 19 31 31 24 18 30 28 27 54 -2
26 -8 32 -31 34 -16 2 -40 -4 -53 -13 -14 -9 -31 -14 -37 -12 -7 2 12 16 40
31 36 18 55 34 59 51 15 61 -31 76 -105 34 -38 -22 -50 -25 -54 -15 -4 9 3 16
19 20 34 9 64 41 64 71 0 20 -6 25 -34 30 -19 4 -43 2 -54 -4 -24 -13 -42 -14
-42 -3 0 4 23 14 52 22 40 12 56 22 71 47 l18 32 -31 16 c-29 15 -35 15 -80 0
-48 -16 -76 -13 -65 6 4 5 17 9 30 9 20 0 65 44 65 64 0 15 -61 35 -89 30 -20
-4 -31 -2 -31 5 0 18 210 15 237 -4 13 -9 29 -43 43 -86 57 -187 161 -342 313
-464 369 -295 905 -266 1240 69 120 120 208 276 249 442 28 117 31 314 5 423
-90 373 -368 645 -735 717 -87 17 -253 18 -338 3 -252 -44 -482 -197 -621
-412 -68 -104 -122 -240 -138 -344 l-7 -43 -58 0 c-32 0 -62 5 -65 10 -3 6
-15 10 -26 10 -25 0 -24 8 2 29 21 17 21 18 4 44 -10 16 -30 29 -51 33 -19 3
-34 10 -34 15 0 12 5 12 65 -7 48 -16 53 -16 78 1 32 21 33 25 7 58 -12 16
-39 30 -70 38 -28 7 -50 19 -50 26 0 17 4 16 42 -3 25 -13 35 -13 59 -4 47 20
32 71 -27 96 -19 8 -32 19 -29 25 4 6 27 -2 59 -19 48 -28 54 -29 84 -16 18 7
32 15 32 18 0 27 -27 59 -69 82 -28 15 -51 31 -51 36 0 12 9 10 39 -12 21 -14
35 -17 57 -11 24 7 29 13 27 37 -1 19 -14 39 -34 56 -18 15 -30 30 -26 34 3 4
26 -11 51 -33 36 -32 51 -39 76 -35 26 4 30 8 30 37 0 27 -9 41 -47 74 -26 22
-44 43 -41 47 4 3 19 -6 35 -20 18 -17 39 -26 60 -26 30 0 33 3 33 32 0 21 -9
41 -27 60 -14 15 -23 31 -19 35 4 4 25 -14 47 -40 31 -35 48 -47 69 -47 52 0
54 54 4 110 -20 22 -34 44 -30 47 4 4 18 -7 32 -25 18 -23 34 -32 55 -32 41 0
50 40 20 93 -13 22 -18 38 -11 35 7 -2 24 -26 39 -53 19 -35 35 -51 56 -56 35
-10 41 -6 48 28 4 20 -3 44 -24 80 -16 29 -24 55 -19 58 5 3 16 -10 24 -30 9
-21 26 -39 41 -45 35 -13 32 -14 50 20 14 27 14 33 0 60 -18 36 -19 40 -2 40
7 0 21 -24 30 -53 12 -39 24 -57 42 -65 36 -17 40 -15 54 14 9 22 9 36 -4 75
-9 27 -15 55 -12 62 2 6 10 -7 16 -31 8 -30 20 -46 37 -54 23 -11 28 -9 45 12
13 19 17 35 12 63 -4 24 -2 37 6 37 7 0 11 -19 11 -48 0 -40 5 -53 28 -75 l28
-27 24 25 c20 21 22 31 17 80 -3 31 -2 55 4 55 5 0 9 -15 9 -33 0 -23 8 -41
25 -57 l25 -23 25 23 c19 17 25 34 25 63 0 22 3 37 7 34 3 -4 5 -33 4 -65z
m-4765 -258 l21 -9 -20 -53 c-15 -39 -24 -51 -35 -47 -8 3 -48 8 -88 12 -59 5
-78 3 -99 -11 -47 -31 -47 -51 0 -222 l45 -158 -36 -37 c-27 -28 -52 -77 -105
-212 -38 -97 -69 -184 -69 -194 0 -37 37 -79 89 -101 l51 -21 17 50 c10 27 21
49 25 49 16 0 18 -22 3 -56 -8 -20 -15 -40 -15 -45 0 -4 23 -16 50 -26 51 -18
65 -33 31 -33 -42 0 -74 -44 -163 -228 -71 -149 -88 -191 -83 -214 11 -50 44
-62 185 -66 153 -5 251 15 376 78 129 65 166 111 134 170 -5 10 -82 75 -171
144 -114 89 -169 126 -187 126 l-27 0 27 23 c40 33 158 331 165 417 l5 65 126
65 c69 36 134 73 144 83 10 9 18 31 18 49 0 28 -12 44 -76 106 l-75 73 17 47
c10 26 19 49 20 51 7 8 143 -110 187 -161 144 -170 217 -366 217 -583 0 -337
-185 -638 -485 -788 -342 -171 -747 -104 -1018 167 -120 120 -197 259 -238
432 -28 116 -23 318 10 432 69 236 239 441 456 549 70 35 175 71 243 83 56 11
298 6 328 -6z m4954 -14 c499 -144 768 -673 591 -1160 -91 -249 -302 -452
-553 -534 -237 -77 -493 -50 -715 75 -102 57 -254 206 -312 306 -47 79 -95
196 -106 256 l-7 37 49 0 c27 0 56 -6 65 -12 9 -7 26 -40 37 -73 40 -113 85
-126 178 -53 32 24 86 66 120 92 l61 48 67 -27 c66 -26 70 -26 265 -23 l198 3
6 -50 c4 -27 26 -124 50 -215 47 -175 61 -200 116 -200 33 0 146 78 212 146
101 106 184 263 195 368 5 45 2 54 -21 75 l-26 24 -213 -9 c-174 -8 -219 -13
-240 -27 -36 -23 -37 -23 -37 23 l0 40 -50 0 c-38 0 -50 4 -50 15 0 11 12 15
50 15 l50 0 0 64 c0 59 -2 66 -31 90 l-31 26 -194 0 c-155 0 -202 -3 -234 -16
-36 -15 -43 -15 -58 -2 -190 164 -243 207 -261 213 -13 4 -35 2 -51 -5 -32
-13 -69 -89 -91 -184 l-14 -56 -63 0 -63 0 7 38 c63 348 337 627 694 707 96
22 312 14 410 -15z m-1842 -89 c96 -38 176 -71 179 -74 7 -7 -16 -75 -28 -83
-9 -5 -356 130 -371 145 -9 9 22 81 36 81 6 0 89 -31 184 -69z m-3157 -57 c4
-2 -12 -52 -35 -111 -23 -60 -46 -117 -50 -128 -6 -17 -9 -17 -15 -5 -17 34
-63 230 -57 246 5 14 16 16 78 9 40 -3 76 -9 79 -11z m354 -177 c41 -37 57
-58 52 -69 -6 -17 -217 -131 -217 -117 0 16 93 239 99 239 4 0 34 -24 66 -53z
m3915 -304 l113 -98 -153 -3 c-84 -1 -155 0 -158 2 -6 7 37 147 54 174 8 12
18 22 23 22 4 0 59 -44 121 -97z m638 -115 c7 -7 12 -22 12 -35 0 -20 -5 -23
-40 -23 -29 0 -42 5 -50 20 -9 17 -21 20 -75 20 l-64 0 -32 -57 -33 -57 30
-55 31 -56 66 -3 c58 -3 67 0 77 18 8 15 21 20 50 20 36 0 40 -3 40 -25 0 -42
-27 -47 -213 -43 -152 3 -177 7 -217 26 -45 22 -45 22 -783 22 -638 0 -742 2
-767 15 -59 30 -68 98 -21 146 l29 29 745 0 744 0 54 24 c51 23 65 25 230 25
123 1 179 -3 187 -11z m556 -268 c-2 -82 -88 -241 -179 -335 -68 -70 -168
-140 -188 -132 -13 5 -107 353 -107 396 0 12 15 38 33 58 l34 36 139 7 c76 4
168 7 204 6 l65 -1 -1 -35z m-1158 -18 c-14 -23 -158 -123 -172 -120 -15 3
-51 80 -53 116 -1 9 28 12 115 12 63 0 113 -4 110 -8z m-4144 -232 c84 -67
154 -127 156 -135 4 -19 -52 -59 -141 -100 -112 -52 -192 -67 -324 -63 -166 5
-164 -4 -55 215 96 190 105 201 174 202 32 1 55 -14 190 -119z"/>
<path d="M940 1969 c-111 -64 -196 -144 -268 -253 -79 -121 -110 -228 -78
-271 17 -24 106 -33 325 -34 l155 -1 42 45 c23 25 44 58 47 73 4 15 -10 117
-29 227 -39 220 -50 245 -108 245 -17 0 -56 -14 -86 -31z m111 -49 c12 -40 62
-332 62 -363 0 -18 -11 -40 -34 -63 l-34 -36 -199 5 c-121 3 -202 9 -209 16
-15 15 13 99 60 181 49 84 181 216 258 257 69 37 85 38 96 3z"/>
<path d="M1915 1577 c-105 -61 -304 -197 -322 -221 -26 -33 -38 -111 -23 -151
6 -17 77 -96 158 -177 135 -136 150 -148 183 -148 44 0 58 15 98 100 50 108
66 181 66 315 0 149 -18 239 -56 278 -33 33 -52 34 -104 4z m79 -59 c39 -94
44 -276 12 -400 -23 -85 -74 -188 -94 -188 -10 0 -80 63 -157 140 l-140 140 2
52 c1 28 8 58 16 65 18 18 330 222 340 223 4 0 14 -15 21 -32z"/>
<path d="M603 1309 c-43 -16 -55 -49 -43 -124 28 -175 110 -328 241 -449 71
-66 98 -80 133 -66 35 13 47 35 120 223 77 197 82 232 36 295 -16 23 -39 46
-50 52 -12 6 -99 24 -193 40 -95 16 -183 31 -197 34 -14 2 -35 0 -47 -5z m231
-79 c98 -16 185 -35 193 -42 21 -17 43 -63 43 -90 0 -13 -31 -102 -69 -198
-55 -141 -72 -176 -89 -178 -14 -2 -42 19 -94 70 -108 108 -175 233 -203 379
-11 60 -11 72 1 84 8 8 20 12 27 10 7 -3 92 -18 191 -35z"/>
<path d="M6020 2040 c-92 -24 -219 -87 -285 -141 -81 -67 -92 -101 -47 -148
36 -38 326 -220 362 -227 37 -8 121 20 147 49 12 12 53 109 92 216 65 175 71
197 60 223 -6 16 -20 33 -30 38 -31 17 -217 11 -299 -10z m278 -52 c2 -10 -27
-99 -64 -199 l-67 -182 -45 -19 c-24 -11 -52 -18 -61 -15 -20 5 -319 193 -341
214 -13 13 -9 20 35 59 80 71 202 128 340 158 11 2 60 3 110 3 76 -2 90 -5 93
-19z"/>
<path d="M6525 1970 c-12 -4 -26 -15 -34 -23 -17 -21 -111 -373 -111 -419 0
-42 49 -115 91 -135 14 -7 113 -17 228 -23 179 -10 206 -9 227 5 31 20 38 53
25 116 -27 127 -135 300 -241 388 -97 81 -148 106 -185 91z m201 -181 c75 -80
124 -161 160 -265 39 -112 35 -118 -69 -111 -45 4 -136 9 -202 13 -116 7 -121
8 -147 37 -42 44 -44 68 -13 181 15 55 38 139 50 185 13 46 29 87 36 92 18 11
113 -57 185 -132z"/>
<path d="M6035 1061 c-11 -5 -94 -57 -183 -116 -173 -114 -193 -135 -172 -185
25 -61 199 -166 335 -202 80 -22 225 -34 279 -24 42 8 76 40 76 72 0 38 -140
387 -167 416 -36 38 -121 58 -168 39z m88 -52 c20 -5 44 -20 51 -32 8 -12 45
-100 81 -195 51 -132 64 -177 55 -185 -7 -8 -49 -12 -118 -11 -87 1 -122 7
-187 28 -130 44 -275 136 -275 174 1 17 320 232 344 232 6 0 28 -5 49 -11z"/>
</g>
</svg>
