<?xml version="1.0"?><svg width="807.96417" height="529.91284" xmlns="http://www.w3.org/2000/svg" xmlns:xlink="http://www.w3.org/1999/xlink">
 <defs>
  <linearGradient id="linearGradient10891">
   <stop stop-color="#999" id="stop10893" offset="0"/>
   <stop stop-color="#999" stop-opacity="0" id="stop10895" offset="1"/>
  </linearGradient>
  <linearGradient y2="0.251558" x2="0.041942" y1="0.601221" x1="0.622744" id="linearGradient17572" xlink:href="#linearGradient10891"/>
  <linearGradient y2="0.251558" x2="0.041942" y1="0.601221" x1="0.622744" id="linearGradient17574" xlink:href="#linearGradient10891"/>
 </defs>
 <metadata id="metadata6">image/svg+xmlautoZS a MS Machovo nam.(czautocar</metadata>
 <g>
  <title>Layer 1</title>
  <g display="none" transform="translate(-114.54, -136.165)" id="layer1"/>
  <g display="inline" id="layer2">
   <g id="g17642">
    <path fill="black" fill-rule="evenodd" stroke="black" stroke-width="1px" d="m801.286743,318.641846l2.792114,83.763l-4.188171,65.614319c0,0 -2.792053,60.030151 -41.88147,60.030151c-39.089355,0 -78.178772,13.96051 -76.782715,-47.465698c1.396057,-61.426208 115.872131,-160.545715 120.060242,-161.941772z" id="path17495"/>
    <path fill="black" fill-rule="evenodd" stroke="black" stroke-width="1px" d="m10.500519,317.927429l-2.792099,83.763l4.188148,65.61438c0,0 2.792099,60.03009 41.881485,60.03009c39.089401,0 78.178795,13.96051 76.782738,-47.465698c-1.396057,-61.426147 -115.872124,-160.545715 -120.060272,-161.941772z" id="path17493"/>
    <path fill="#999" fill-rule="evenodd" stroke="black" stroke-width="1px" d="m445.316193,487.540833l-248.607452,2.93634l-94.940651,-5.87262c0,0 -50.896027,5.87262 -72.428955,-26.426819c-21.532936,-32.299377 -27.405548,-148.772949 -27.405548,-148.772949c0,0 -14.681549,-79.28038 49.917252,-124.303787c64.598785,-45.023376 53.832321,-33.278168 53.832321,-33.278168l34.256935,-64.598785c0,0 34.746338,-65.088181 71.450195,-71.45018c55.534088,-9.625916 104.728333,-9.787704 104.728333,-9.787704c0,0 194.552429,-16.631645 299.994904,8.019943c19.207092,4.490463 65.086182,75.175476 65.086182,75.175476l31.320618,57.747421c23.806458,9.732269 35.489258,16.08609 56.896057,33.841858c0,0 38.438477,21.532928 38.044617,98.292007c-0.412537,80.407166 -12.723999,177.157349 -35.235718,188.902588c-22.511658,11.745239 -26.923218,9.242493 -42.822754,10.723999c-19.645386,1.830566 -58.187622,3.788086 -114.754883,6.288025c-56.5672,2.499878 -131.159393,3.542114 -142.904633,3.542114c-23.490479,0 -26.426819,-1.95752 -26.426819,-0.97876z" id="path13795"/>
    <g id="g10918">
     <g id="g10901">
      <path fill="black" stroke="#d0d0d0" stroke-width="2.697" stroke-miterlimit="4" id="path9117" d="m134.201859,434.982361a25.998249,25.401859 0 1 1 -51.99649,0a25.998249,25.401859 0 1 1 51.99649,0z"/>
      <path fill="url(#linearGradient17572)" stroke="#d0d0d0" stroke-width="0" stroke-miterlimit="4" id="path9119" d="m133.251129,435.128967a24.89838,24.301935 0 1 1 -49.796761,0a24.89838,24.301935 0 1 1 49.796761,0z"/>
      <path fill="black" stroke="#d0d0d0" stroke-width="0" stroke-miterlimit="4" id="path10899" d="m117.446976,433.792511a6.112764,5.66551 0 1 1 -12.225533,0a6.112764,5.66551 0 1 1 12.225533,0z"/>
     </g>
     <path fill="black" fill-rule="evenodd" stroke="black" stroke-width="1px" id="path10906" d="m130.064667,407.904114l8.140564,11.047913l2.713531,6.008545l1.162933,4.264099l87.220367,0l-6.202362,-20.157593l-93.035034,-1.162964z"/>
     <path fill="black" fill-rule="evenodd" stroke="black" stroke-width="1px" id="path10908" d="m142.081696,433.682617l89.352417,1.744385l6.202332,13.761414l5.814697,9.303528l-104.082977,-1.35675l1.938232,-13.567627l0.775299,-9.884949z"/>
    </g>
    <path fill="black" fill-rule="evenodd" stroke="black" stroke-width="1.036052px" d="m522.547913,467.095459l-109.672516,1.277527l-0.807373,0l-123.162811,0l8.94873,6.387573l2.38858,2.461548l4.205231,1.963013l5.651825,0.249268l79.966675,-0.186951l0.908325,0.155823l22.338196,-0.186951l7.300293,-0.031189l0.302734,-0.062317l80.572266,-0.716614l5.685486,-0.342773l4.137939,-1.994202l2.35495,-2.523865l8.88147,-6.44989z" id="path10929"/>
    <path fill="black" stroke="#d0d0d0" stroke-width="0" stroke-miterlimit="4" d="m415.647491,216.741257c-2.768799,-0.002533 -5.380615,0.018066 -7.8125,0.0625c-1.215942,0.022217 -2.43512,0.049988 -3.65625,0.09375c-0.052063,-0.000275 -0.104248,0.000214 -0.15625,0c-0.291382,-0.001251 -0.583984,0 -0.875,0c-38.91629,0 -123.600586,6.968994 -165.3125,15.6875c-12.067017,2.522217 -7.261505,64.267166 -0.8125,84.656265c5.028748,15.898743 5.452515,53.500427 39.03125,65.75c21.027344,7.670776 82.375488,8.968506 122.34375,9.125c0.095703,0.000366 0.185791,-0.000366 0.28125,0c1.838928,0.031982 3.66803,0.016968 5.5,0c1.283203,0.001892 2.776672,0.03125 4,0.03125c3.898132,0 7.826965,-0.12207 11.75,-0.34375c39.949036,-0.965332 97.881622,-3.479614 118.031281,-11.25c33.349487,-12.860718 33.07489,-50.480835 37.8125,-66.46875c6.075623,-20.503479 9.767334,-82.323563 -2.34375,-84.625015c-39.247681,-7.45816 -116.249603,-12.680756 -157.781281,-12.71875z" id="path10937"/>
    <g id="g13873">
     <path fill="black" fill-rule="evenodd" stroke="black" stroke-width="1px" id="path11844" d="m29.737938,322.031372c44.61937,0.776733 89.238266,2.510437 133.867714,1.405762c18.53067,-0.215454 35.06131,-0.430908 53.59198,-0.646423c10.246735,2.528259 14.945801,10.545532 16.253143,20.556396c0.244019,6.867004 7.82608,20.028076 -1.733765,22.273193c-57.943359,-0.571106 -113.978569,-0.78479 -171.940453,-2.164063c-9.290176,-0.613525 -18.652252,-1.708191 -27.197723,-5.629944c-7.748413,-4.943909 -5.359192,-15.832886 -5.602524,-23.504944c0.277283,-4.106934 1.875854,-8.253418 2.761627,-12.289978z"/>
     <rect fill="#bdb7b7" stroke="#d0d0d0" stroke-width="0" stroke-miterlimit="4" transform="matrix(0.918448, -0.395543, 0.395543, 0.918448, 0, 0)" y="325.198696" x="-61.3077" height="46.320881" width="2.657756" id="rect11865"/>
     <rect fill="#bdb7b7" stroke="#d0d0d0" stroke-width="0" stroke-miterlimit="4" transform="matrix(0.918448, -0.395543, 0.395543, 0.918448, 0, 0)" y="331.232356" x="-46.337196" height="46.320904" width="2.657757" id="rect12752"/>
     <rect fill="#bdb7b7" stroke="#d0d0d0" stroke-width="0" stroke-miterlimit="4" transform="matrix(0.918448, -0.395543, 0.395543, 0.918448, 0, 0)" y="339.240206" x="-28.702888" height="46.320904" width="2.657757" id="rect12754"/>
     <rect fill="#bdb7b7" stroke="#d0d0d0" stroke-width="0" stroke-miterlimit="4" transform="matrix(0.918448, -0.395543, 0.395543, 0.918448, 0, 0)" y="346.947756" x="-11.766014" height="46.320904" width="2.657757" id="rect12756"/>
     <rect fill="#bdb7b7" stroke="#d0d0d0" stroke-width="0" stroke-miterlimit="4" transform="matrix(0.918448, -0.395543, 0.395543, 0.918448, 0, 0)" y="355.207576" x="7.413334" height="46.320904" width="2.657757" id="rect12758"/>
     <rect fill="#bdb7b7" stroke="#d0d0d0" stroke-width="0" stroke-miterlimit="4" transform="matrix(0.918448, -0.395543, 0.395543, 0.918448, 0, 0)" y="363.617616" x="26.941395" height="46.320904" width="2.657757" id="rect12760"/>
     <rect fill="#bdb7b7" stroke="#d0d0d0" stroke-width="0" stroke-miterlimit="4" transform="matrix(0.918448, -0.395543, 0.395543, 0.918448, 0, 0)" y="372.376096" x="46.319226" height="46.320881" width="2.657756" id="rect12762"/>
     <rect fill="#bdb7b7" stroke="#d0d0d0" stroke-width="0" stroke-miterlimit="4" transform="matrix(0.918448, -0.395543, 0.395543, 0.918448, 0, 0)" y="380.287536" x="65.64881" height="46.320904" width="2.657757" id="rect12764"/>
     <rect fill="#bdb7b7" stroke="#d0d0d0" stroke-width="0" stroke-miterlimit="4" transform="matrix(0.918448, -0.395543, 0.395543, 0.918448, 0, 0)" y="318.617306" x="-75.629293" height="46.320904" width="2.657757" id="rect12766"/>
     <rect fill="#bdb7b7" stroke="#d0d0d0" stroke-width="0" stroke-miterlimit="4" transform="matrix(0.918448, -0.395543, 0.395543, 0.918448, 0, 0)" y="311.961026" x="-90.125164" height="46.320904" width="2.657757" id="rect12768"/>
     <path fill="#bdb7b7" stroke="#d0d0d0" stroke-width="0" stroke-miterlimit="4" id="rect12772" d="m25.431496,326.724304l2.44101,-1.05127l15.664139,34.949768l-2.44101,1.051208l-15.664139,-34.949707z"/>
    </g>
    <g id="g13862">
     <path fill="black" stroke="black" stroke-width="1.116889" stroke-miterlimit="4" id="path8230" d="m202.601807,228.266098l-98.650215,1.071594c-2.01712,-0.313965 -4.086929,-0.470978 -6.1866,-0.470978c-23.147598,0 -41.927704,19.7724 -41.927704,44.129868c0,24.357483 18.780106,42.785217 41.927704,42.785217c11.573822,0 22.330536,-3.299438 30.764915,-9.126221c0.695374,-0.480347 1.367371,-1.007507 1.983765,-1.594177l0.403473,0.760864l84.931091,0l-1.546661,-11.304199l-11.699768,-66.251968z"/>
     <g id="g10910">
      <path fill="#9b9b9b" stroke="black" stroke-miterlimit="4" d="m200.084991,229.678757l-95.937492,1.15625c-1.874786,-0.270813 -3.798508,-0.40625 -5.75,-0.40625c-21.514008,0 -38.96875,17.053925 -38.96875,38.062515c0,21.008545 17.454742,38.0625 38.96875,38.0625c10.757004,0 20.754593,-4.005615 28.59375,-9.03125c0.646286,-0.414368 1.270866,-0.869019 1.843742,-1.375l0.375,0.65625l77.4375,0l-1.4375,-9.75l-5.125,-57.375015z" id="rect1966"/>
      <path fill="#999" stroke="#d0d0d0" stroke-width="2.697" stroke-miterlimit="4" id="path6427" d="m201.504639,262.59491a30.443047,31.37219 0 1 1 -60.886108,0a30.443047,31.37219 0 1 1 60.886108,0z"/>
      <path fill="#2c2c2c" stroke="#d0d0d0" stroke-width="2.615687" stroke-miterlimit="4" d="m201.125702,262.728638c-18.111603,0.188354 15.859314,0.19574 -18.964661,0.096741c-6.01178,-0.017029 -14.073761,-0.037292 -24.807892,-0.060303c-4.493927,-0.009644 -10.098114,-0.033752 -17.113525,-0.036438c0,-17.317398 13.638458,-31.372116 30.443024,-31.372116c16.804596,0 30.443054,14.054718 30.443054,31.372116z" id="path6429"/>
      <path fill="#616161" stroke="white" stroke-miterlimit="4" id="path2865" d="m137.285278,266.913055a37.480499,33.715279 0 1 1 -74.960979,0a37.480499,33.715279 0 1 1 74.960979,0z"/>
      <path fill="white" stroke="#d0d0d0" stroke-width="3.23873" stroke-miterlimit="4" d="m99.413933,268.012756l-26.939499,20.742126l24.555099,-23.788635l-2.158249,-31.110153l6.001663,30.474411l29.635628,20.049866l-31.094643,-16.367615z" id="path5524"/>
      <path fill="#8d8d8d" stroke="#d0d0d0" stroke-width="1.930057" stroke-miterlimit="4" id="path4637" d="m116.818138,265.703522a18.089197,16.341076 0 1 1 -36.178383,0a18.089197,16.341076 0 1 1 36.178383,0z"/>
     </g>
     <path fill="#bdb7b7" stroke="#d0d0d0" stroke-width="0" stroke-miterlimit="4" d="m176.538635,243.960739a6.028156,5.192622 0 1 1 -12.05632,0a6.028156,5.192622 0 1 1 12.05632,0z" id="path13692"/>
    </g>
    <g display="inline" id="g13887" transform="matrix(-1, 0, 0, 1, 1040.36, -1.46315)">
     <g id="g13889">
      <path fill="black" stroke="#d0d0d0" stroke-width="2.697" stroke-miterlimit="4" id="path13891" d="m363.28186,434.982361a25.998249,25.401859 0 1 1 -51.996521,0a25.998249,25.401859 0 1 1 51.996521,0z"/>
      <path fill="url(#linearGradient17574)" stroke="#d0d0d0" stroke-width="0" stroke-miterlimit="4" id="path13893" d="m362.331146,435.128967a24.89838,24.301935 0 1 1 -49.796783,0a24.89838,24.301935 0 1 1 49.796783,0z"/>
      <path fill="black" stroke="#d0d0d0" stroke-width="0" stroke-miterlimit="4" id="path13895" d="m346.526947,433.792511a6.112764,5.66551 0 1 1 -12.225555,0a6.112764,5.66551 0 1 1 12.225555,0z"/>
     </g>
     <path fill="black" fill-rule="evenodd" stroke="black" stroke-width="1px" id="path13897" d="m359.144653,407.904114l8.140564,11.047913l2.713501,6.008545l1.162964,4.264099l87.220367,0l-6.202362,-20.157593l-93.035034,-1.162964z"/>
     <path fill="black" fill-rule="evenodd" stroke="black" stroke-width="1px" id="path13899" d="m371.161682,433.682617l89.352417,1.744385l6.202332,13.761414l5.814697,9.303528l-104.082977,-1.35675l1.938232,-13.567627l0.775299,-9.884949z"/>
    </g>
    <g display="inline" id="g13901" transform="matrix(-1, 0, 0, 1, 1040.36, -1.46315)">
     <path fill="black" fill-rule="evenodd" stroke="black" stroke-width="1px" id="path13903" d="m258.817932,322.031372c44.619354,0.776733 89.238251,2.510437 133.867706,1.405762c18.53067,-0.215454 35.06131,-0.430908 53.59198,-0.646423c10.246735,2.528259 14.945801,10.545532 16.253143,20.556396c0.244019,6.867004 7.82608,20.028076 -1.733765,22.273193c-57.943359,-0.571106 -113.978577,-0.78479 -171.94046,-2.164063c-9.290192,-0.613525 -18.652252,-1.708191 -27.197723,-5.629944c-7.748413,-4.943909 -5.359192,-15.832886 -5.602539,-23.504944c0.277283,-4.106934 1.875854,-8.253418 2.761658,-12.289978z"/>
     <rect fill="#bdb7b7" stroke="#d0d0d0" stroke-width="0" stroke-miterlimit="4" transform="matrix(0.918448, -0.395543, 0.395543, 0.918448, 0, 0)" y="415.809582" x="149.090138" height="46.320881" width="2.657756" id="rect13905"/>
     <rect fill="#bdb7b7" stroke="#d0d0d0" stroke-width="0" stroke-miterlimit="4" transform="matrix(0.918448, -0.395543, 0.395543, 0.918448, 0, 0)" y="421.843242" x="164.060642" height="46.320904" width="2.657757" id="rect13907"/>
     <rect fill="#bdb7b7" stroke="#d0d0d0" stroke-width="0" stroke-miterlimit="4" transform="matrix(0.918448, -0.395543, 0.395543, 0.918448, 0, 0)" y="429.851092" x="181.69495" height="46.320904" width="2.657757" id="rect13909"/>
     <rect fill="#bdb7b7" stroke="#d0d0d0" stroke-width="0" stroke-miterlimit="4" transform="matrix(0.918448, -0.395543, 0.395543, 0.918448, 0, 0)" y="437.558642" x="198.631824" height="46.320904" width="2.657757" id="rect13911"/>
     <rect fill="#bdb7b7" stroke="#d0d0d0" stroke-width="0" stroke-miterlimit="4" transform="matrix(0.918448, -0.395543, 0.395543, 0.918448, 0, 0)" y="445.818462" x="217.811172" height="46.320904" width="2.657757" id="rect13913"/>
     <rect fill="#bdb7b7" stroke="#d0d0d0" stroke-width="0" stroke-miterlimit="4" transform="matrix(0.918448, -0.395543, 0.395543, 0.918448, 0, 0)" y="454.228502" x="237.339233" height="46.320904" width="2.657757" id="rect13915"/>
     <rect fill="#bdb7b7" stroke="#d0d0d0" stroke-width="0" stroke-miterlimit="4" transform="matrix(0.918448, -0.395543, 0.395543, 0.918448, 0, 0)" y="462.986982" x="256.717064" height="46.320881" width="2.657756" id="rect13917"/>
     <rect fill="#bdb7b7" stroke="#d0d0d0" stroke-width="0" stroke-miterlimit="4" transform="matrix(0.918448, -0.395543, 0.395543, 0.918448, 0, 0)" y="470.898422" x="276.046648" height="46.320904" width="2.657757" id="rect13919"/>
     <rect fill="#bdb7b7" stroke="#d0d0d0" stroke-width="0" stroke-miterlimit="4" transform="matrix(0.918448, -0.395543, 0.395543, 0.918448, 0, 0)" y="409.228192" x="134.768545" height="46.320904" width="2.657757" id="rect13921"/>
     <rect fill="#bdb7b7" stroke="#d0d0d0" stroke-width="0" stroke-miterlimit="4" transform="matrix(0.918448, -0.395543, 0.395543, 0.918448, 0, 0)" y="402.571912" x="120.272674" height="46.320904" width="2.657757" id="rect13923"/>
     <path fill="#bdb7b7" stroke="#d0d0d0" stroke-width="0" stroke-miterlimit="4" id="path13925" d="m254.511475,326.724304l2.44101,-1.05127l15.664154,34.949768l-2.44104,1.051208l-15.664124,-34.949707z"/>
    </g>
    <g display="inline" id="g13927" transform="matrix(-1, 0, 0, 1, 1040.36, -1.46315)">
     <path fill="black" stroke="black" stroke-width="1.116889" stroke-miterlimit="4" id="path13929" d="m431.681793,228.266098l-98.650238,1.071594c-2.01709,-0.313965 -4.086914,-0.470978 -6.186584,-0.470978c-23.147583,0 -41.927704,19.7724 -41.927704,44.129868c0,24.357483 18.780121,42.785217 41.927704,42.785217c11.573822,0 22.330536,-3.299438 30.764923,-9.126221c0.695374,-0.480347 1.367371,-1.007507 1.983734,-1.594177l0.403503,0.760864l84.931091,0l-1.546661,-11.304199l-11.699768,-66.251968z"/>
     <g id="g13931">
      <path fill="#9b9b9b" stroke="black" stroke-miterlimit="4" d="m429.164978,229.678757l-95.9375,1.15625c-1.874786,-0.270813 -3.798523,-0.40625 -5.75,-0.40625c-21.514008,0 -38.96875,17.053925 -38.96875,38.062515c0,21.008545 17.454742,38.0625 38.96875,38.0625c10.757019,0 20.754578,-4.005615 28.59375,-9.03125c0.646301,-0.414368 1.270874,-0.869019 1.84375,-1.375l0.375,0.65625l77.4375,0l-1.4375,-9.75l-5.125,-57.375015z" id="path13933"/>
      <path fill="#999" stroke="#d0d0d0" stroke-width="2.697" stroke-miterlimit="4" id="path13935" d="m430.584625,262.59491a30.443047,31.37219 0 1 1 -60.886108,0a30.443047,31.37219 0 1 1 60.886108,0z"/>
      <path fill="#2c2c2c" stroke="#d0d0d0" stroke-width="2.615687" stroke-miterlimit="4" d="m430.205688,262.728638c-18.111603,0.188354 15.859314,0.19574 -18.964661,0.096741c-6.01178,-0.017029 -14.073761,-0.037292 -24.807892,-0.060303c-4.493927,-0.009644 -10.098114,-0.033752 -17.113556,-0.036438c0,-17.317398 13.638489,-31.372116 30.443054,-31.372116c16.804596,0 30.443054,14.054718 30.443054,31.372116z" id="path13937"/>
      <path fill="#616161" stroke="white" stroke-miterlimit="4" id="path13939" d="m366.365234,266.913055a37.480499,33.715279 0 1 1 -74.960938,0a37.480499,33.715279 0 1 1 74.960938,0z"/>
      <path fill="white" stroke="#d0d0d0" stroke-width="3.23873" stroke-miterlimit="4" d="m328.493896,268.012756l-26.939484,20.742126l24.555084,-23.788635l-2.158234,-31.110153l6.001678,30.474411l29.63562,20.049866l-31.094666,-16.367615z" id="path13941"/>
      <path fill="#8d8d8d" stroke="#d0d0d0" stroke-width="1.930057" stroke-miterlimit="4" id="path13943" d="m345.898102,265.703522a18.089197,16.341076 0 1 1 -36.178375,0a18.089197,16.341076 0 1 1 36.178375,0z"/>
     </g>
     <path fill="#bdb7b7" stroke="#d0d0d0" stroke-width="0" stroke-miterlimit="4" d="m405.618622,243.960739a6.028156,5.192622 0 1 1 -12.056335,0a6.028156,5.192622 0 1 1 12.056335,0z" id="path13945"/>
    </g>
    <path fill="black" fill-rule="evenodd" stroke="black" stroke-width="1px" d="m193.280457,31.966003c0,0 -28.158203,35.837738 -37.117615,51.196747c-8.959442,15.359039 -37.117653,65.915817 -37.117653,65.915817c0,0 252.783974,-15.359009 296.301216,-14.079102c43.517212,1.279938 182.219513,-0.348175 280.302277,7.039551c1.940857,0.14621 -20.617737,-42.891068 -37.741882,-69.565933c-17.124146,-26.67485 -28.813904,-36.987289 -35.853455,-45.626755c-14.079163,-17.2789 -364.776917,-8.959427 -428.772888,5.119675z" id="path16606"/>
    <path fill="black" stroke="#d0d0d0" stroke-width="0" stroke-miterlimit="4" d="m545.460022,167.476303c-84.276978,-0.556625 -147.176422,-1.12648 -279.2099,0c0,-9.632736 62.542999,-17.450623 139.60495,-17.450623c77.061951,0 139.60495,7.817886 139.60495,17.450623z" id="path17569"/>
   </g>
  </g>
 </g>
</svg>